<?xml version="1.0" encoding="iso-8859-1"?>
<!-- Generator: Adobe Illustrator 16.0.0, SVG Export Plug-In . SVG Version: 6.00 Build 0)  -->
<!DOCTYPE svg PUBLIC "-//W3C//DTD SVG 1.1//EN" "http://www.w3.org/Graphics/SVG/1.1/DTD/svg11.dtd">
<svg version="1.1" id="Capa_1" xmlns="http://www.w3.org/2000/svg" xmlns:xlink="http://www.w3.org/1999/xlink" x="0px" y="0px"
	 width="281.422px" height="281.422px" viewBox="0 0 281.422 281.422" style="enable-background:new 0 0 281.422 281.422;"
	 xml:space="preserve">
<g>
	<path d="M268.343,84.73L186.587,2.975c-3.966-3.963-10.893-3.97-14.869,0l-47.079,47.082c-1.988,1.985-3.082,4.626-3.082,7.436
		s1.093,5.448,3.082,7.433l38.133,38.13L15.339,250.475c-0.623,0.63-1.001,1.444-1.054,2.304
		c-3.936,7.478-2.598,16.854,3.477,22.918c3.692,3.692,8.602,5.726,13.82,5.726l0,0c3.256,0,6.42-0.801,9.252-2.32
		c0.806-0.075,1.572-0.425,2.161-1.01l2.146-2.159c0.066-0.059,0.137-0.116,0.198-0.178c0.012-0.011,0.022-0.024,0.033-0.035
		c0.024-0.023,0.053-0.047,0.077-0.071c0,0,83.451-83.651,144.753-145.158l44.826,44.824c1.985,1.981,4.624,3.076,7.434,3.076
		s5.447-1.095,7.43-3.076l18.452-18.456c0.66-0.657,1.026-1.543,1.026-2.478V87.208C269.369,86.28,269.003,85.387,268.343,84.73z
		 M40.521,270.663c-0.007,0.007-0.014,0.018-0.021,0.024c-0.038,0.034-0.073,0.068-0.104,0.099l-1.213,1.212
		c-0.248,0.089-0.488,0.212-0.712,0.359c-2.043,1.348-4.421,2.057-6.885,2.057c-3.351,0-6.5-1.304-8.871-3.672
		c-4.173-4.168-4.859-10.78-1.632-15.708c0.151-0.229,0.267-0.479,0.351-0.732l146.294-146.291l17.521,17.521
		C124.646,186.34,42.379,268.804,40.521,270.663z M262.36,152.93l-17.429,17.429c-1.314,1.324-3.631,1.321-4.949,0l-47.287-47.291
		c-0.007-0.003-0.007-0.014-0.014-0.021l-22.473-22.473c-0.008-0.003-0.014-0.007-0.021-0.011l-40.595-40.6
		c-0.659-0.661-1.023-1.537-1.023-2.474c0-0.941,0.364-1.821,1.027-2.481L176.677,7.93c0.66-0.661,1.543-1.026,2.478-1.026
		c0.94,0,1.824,0.366,2.48,1.023l80.729,80.726v64.278H262.36z"/>
</g>
<g>
</g>
<g>
</g>
<g>
</g>
<g>
</g>
<g>
</g>
<g>
</g>
<g>
</g>
<g>
</g>
<g>
</g>
<g>
</g>
<g>
</g>
<g>
</g>
<g>
</g>
<g>
</g>
<g>
</g>
</svg>
