<?xml version="1.0" encoding="iso-8859-1"?>
<!-- Generator: Adobe Illustrator 19.0.0, SVG Export Plug-In . SVG Version: 6.00 Build 0)  -->
<svg version="1.1" id="Layer_1" xmlns="http://www.w3.org/2000/svg" xmlns:xlink="http://www.w3.org/1999/xlink" x="0px" y="0px"
	 viewBox="0 0 513.041 513.041" style="enable-background:new 0 0 513.041 513.041;" xml:space="preserve">
<g>
	<g>
		<g>
			<path d="M508.148,251.211c-1.145-1.249-28.63-30.816-73.396-60.695c-40.81-27.276-104.107-59.758-174.796-60.799
				c-1.145,0-2.29,0-3.436,0c-1.145,0-2.29,0-3.436,0c-70.689,1.041-133.986,33.523-174.796,60.799
				c-44.766,29.879-72.25,59.445-73.396,60.695L0,256.521l4.893,5.309c1.145,1.249,28.63,30.816,73.396,60.695
				c40.81,27.276,104.107,59.758,174.796,60.799c1.145,0,2.29,0,3.436,0c1.145,0,2.29,0,3.436,0
				c70.689-1.041,133.986-33.523,174.796-60.799c44.766-29.879,72.251-59.445,73.396-60.695l4.893-5.309L508.148,251.211z
				 M87.138,309.719c-32.377-21.654-55.906-43.413-65.796-53.199c9.89-9.682,33.21-31.44,65.484-52.991
				c23.008-15.408,53.407-32.482,88.179-44.141c-27.693,23.32-45.391,58.196-45.391,97.132c0,38.936,17.698,73.812,45.391,97.132
				C140.337,342.097,110.041,325.023,87.138,309.719z M259.436,367.707c-1.041,0-2.082,0-3.019,0c-1.041,0-2.082,0-3.019,0
				c-59.862-1.666-108.168-50.909-108.168-111.187c0-60.278,48.202-109.521,108.063-111.187c1.041,0,2.082,0,3.019,0
				c1.041,0,2.082,0,3.019,0c59.862,1.666,108.168,50.909,108.168,111.187S319.401,366.042,259.436,367.707z M426.007,309.511
				C403,324.919,372.6,341.993,337.828,353.653c27.693-23.32,45.391-58.196,45.391-97.132s-17.698-73.812-45.391-97.132
				c34.564,11.66,64.859,28.63,87.763,43.933c32.377,21.654,55.906,43.413,65.796,53.199
				C481.601,266.307,458.281,287.961,426.007,309.511z"/>
			<path d="M256.416,169.383c-48.098,0-87.138,39.144-87.138,87.138c0,47.993,39.144,87.138,87.138,87.138
				c47.994,0,87.138-39.144,87.138-87.138C343.554,208.527,304.514,169.383,256.416,169.383z M256.416,328.042
				c-39.457,0-71.522-32.065-71.522-71.522c0-39.457,32.065-71.522,71.522-71.522c39.457,0,71.522,32.065,71.522,71.522
				S295.873,328.042,256.416,328.042z"/>
			<rect x="248.504" y="248.713" width="15.824" height="15.616"/>
			<rect x="216.752" y="248.713" width="15.824" height="15.616"/>
			<rect x="280.257" y="248.713" width="15.824" height="15.616"/>
		</g>
	</g>
</g>
<g>
</g>
<g>
</g>
<g>
</g>
<g>
</g>
<g>
</g>
<g>
</g>
<g>
</g>
<g>
</g>
<g>
</g>
<g>
</g>
<g>
</g>
<g>
</g>
<g>
</g>
<g>
</g>
<g>
</g>
</svg>
