<?xml version="1.0" encoding="UTF-8" standalone="no"?><svg xmlns="http://www.w3.org/2000/svg" xmlns:xlink="http://www.w3.org/1999/xlink" contentScriptType="application/ecmascript" contentStyleType="text/css" height="216px" preserveAspectRatio="none" style="width:767px;height:216px;background:#FFFFFF;" version="1.1" viewBox="0 0 767 216" width="767px" zoomAndPan="magnify"><defs><filter height="300%" id="f1lccvw221tejx" width="300%" x="-1" y="-1"><feGaussianBlur result="blurOut" stdDeviation="2.0"/><feColorMatrix in="blurOut" result="blurOut2" type="matrix" values="0 0 0 0 0 0 0 0 0 0 0 0 0 0 0 0 0 0 .4 0"/><feOffset dx="4.0" dy="4.0" in="blurOut2" result="blurOut3"/><feBlend in="SourceGraphic" in2="blurOut3" mode="normal"/></filter></defs><g><!--MD5=[df3fc242ef91a47d9d4eb0969d2a8168]
class Procedure--><rect codeLine="10" fill="#F8F8F8" filter="url(#f1lccvw221tejx)" height="25.0938" id="Procedure" style="stroke:#383838;stroke-width:1.5;" width="63" x="160.5" y="7"/><text fill="#000000" font-family="sans-serif" font-size="12" lengthAdjust="spacing" textLength="57" x="163.5" y="24.457">Procedure</text><!--MD5=[3787884da870b7cc2169c546b8860673]
class Enumerator--><rect codeLine="11" fill="#F8F8F8" filter="url(#f1lccvw221tejx)" height="25.0938" id="Enumerator" style="stroke:#383838;stroke-width:1.5;" width="71" x="548.5" y="92"/><text fill="#000000" font-family="sans-serif" font-size="12" lengthAdjust="spacing" textLength="65" x="551.5" y="109.457">Enumerator</text><!--MD5=[fc996f42d6f5ce5c303f43b6555ec2d6]
class MaxSearch--><rect codeLine="12" fill="#F8F8F8" filter="url(#f1lccvw221tejx)" height="25.0938" id="MaxSearch" style="stroke:#383838;stroke-width:1.5;" width="66" x="7" y="92"/><text fill="#000000" font-family="sans-serif" font-size="12" lengthAdjust="spacing" textLength="60" x="10" y="109.457">MaxSearch</text><!--MD5=[d5668132fd864e3fad1515144baa1a17]
class Selection--><rect codeLine="13" fill="#F8F8F8" filter="url(#f1lccvw221tejx)" height="25.0938" id="Selection" style="stroke:#383838;stroke-width:1.5;" width="57" x="213.5" y="92"/><text fill="#000000" font-family="sans-serif" font-size="12" lengthAdjust="spacing" textLength="51" x="216.5" y="109.457">Selection</text><!--MD5=[ed461201aa0da2c9938abd9035f5f332]
class SeqInFileEnumerator--><rect codeLine="14" fill="#F8F8F8" filter="url(#f1lccvw221tejx)" height="25.0938" id="SeqInFileEnumerator" style="stroke:#383838;stroke-width:1.5;" width="123" x="522.5" y="177"/><text fill="#000000" font-family="sans-serif" font-size="12" lengthAdjust="spacing" textLength="117" x="525.5" y="194.457">SeqInFileEnumerator</text><!--MD5=[b2a49dd6d841d9beca6050ef959337e6]
class StringStreamEnumerator--><rect codeLine="15" fill="#F8F8F8" filter="url(#f1lccvw221tejx)" height="25.0938" id="StringStreamEnumerator" style="stroke:#383838;stroke-width:1.5;" width="143" x="512.5" y="7"/><text fill="#000000" font-family="sans-serif" font-size="12" lengthAdjust="spacing" textLength="137" x="515.5" y="24.457">StringStreamEnumerator</text><!--MD5=[1ccf9eb3ebbd1059d752d5f8ab533cad]
class Summation--><rect codeLine="16" fill="#F8F8F8" filter="url(#f1lccvw221tejx)" height="25.0938" id="Summation" style="stroke:#383838;stroke-width:1.5;" width="70" x="108" y="92"/><text fill="#000000" font-family="sans-serif" font-size="12" lengthAdjust="spacing" textLength="64" x="111" y="109.457">Summation</text><!--MD5=[518009cefbe244078bd485b68638d2da]
class LinSearch--><rect codeLine="17" fill="#F8F8F8" filter="url(#f1lccvw221tejx)" height="25.0938" id="LinSearch" style="stroke:#383838;stroke-width:1.5;" width="62" x="306" y="92"/><text fill="#000000" font-family="sans-serif" font-size="12" lengthAdjust="spacing" textLength="56" x="309" y="109.457">LinSearch</text><!--MD5=[5a5e7d15a9fc862b1c40d8aa730732b5]
class IntervalEnumerator--><rect codeLine="18" fill="#F8F8F8" filter="url(#f1lccvw221tejx)" height="25.0938" id="IntervalEnumerator" style="stroke:#383838;stroke-width:1.5;" width="110" x="403" y="92"/><text fill="#000000" font-family="sans-serif" font-size="12" lengthAdjust="spacing" textLength="104" x="406" y="109.457">IntervalEnumerator</text><!--MD5=[a28a46c2d624d17cffac9d08f5809116]
class ArrayEnumerator--><rect codeLine="19" fill="#F8F8F8" filter="url(#f1lccvw221tejx)" height="25.0938" id="ArrayEnumerator" style="stroke:#383838;stroke-width:1.5;" width="98" x="655" y="92"/><text fill="#000000" font-family="sans-serif" font-size="12" lengthAdjust="spacing" textLength="92" x="658" y="109.457">ArrayEnumerator</text><!--MD5=[71dd90fc4185c81adfb4232373fdd18f]
class Counting--><rect codeLine="20" fill="#F8F8F8" filter="url(#f1lccvw221tejx)" height="25.0938" id="Counting" style="stroke:#383838;stroke-width:1.5;" width="56" x="115" y="177"/><text fill="#000000" font-family="sans-serif" font-size="12" lengthAdjust="spacing" textLength="50" x="118" y="194.457">Counting</text><!--MD5=[ef7605406cf7eec9be2187d5021f766f]
class Greater--><rect codeLine="21" fill="#F8F8F8" filter="url(#f1lccvw221tejx)" height="25.0938" id="Greater" style="stroke:#383838;stroke-width:1.5;" width="47" x="16.5" y="177"/><text fill="#000000" font-family="sans-serif" font-size="12" lengthAdjust="spacing" textLength="41" x="19.5" y="194.457">Greater</text><!--MD5=[675170be7ede1839f7087515df7a1054]
class Less--><rect codeLine="22" fill="#F8F8F8" filter="url(#f1lccvw221tejx)" height="25.0938" id="Less" style="stroke:#383838;stroke-width:1.5;" width="34" x="23" y="7"/><text fill="#000000" font-family="sans-serif" font-size="12" lengthAdjust="spacing" textLength="28" x="26" y="24.457">Less</text><!--MD5=[1d91ae6aba95316fbd6e22f283b7d833]
reverse link Procedure to MaxSearch--><path codeLine="24" d="M140.28,20 C140.28,20 65,20 65,20 C65,20 65,68.03 65,91.67 " fill="none" id="Procedure-backto-MaxSearch" style="stroke:#383838;stroke-width:1.0;"/><polygon fill="none" points="140.28,13,160.28,20,140.28,27,140.28,13" style="stroke:#383838;stroke-width:1.0;"/><!--MD5=[1b46d9a4aea5597f299d9c1f7fac2584]
reverse link Procedure to Selection--><path codeLine="25" d="M218.5,52.04 C218.5,52.04 218.5,91.91 218.5,91.91 " fill="none" id="Procedure-backto-Selection" style="stroke:#383838;stroke-width:1.0;"/><polygon fill="none" points="211.5,52.04,218.5,32.04,225.5,52.04,211.5,52.04" style="stroke:#383838;stroke-width:1.0;"/><!--MD5=[e95140a01b580a7344ab3a5552652773]
reverse link Procedure to Summation--><path codeLine="26" d="M169.25,52.04 C169.25,52.04 169.25,91.91 169.25,91.91 " fill="none" id="Procedure-backto-Summation" style="stroke:#383838;stroke-width:1.0;"/><polygon fill="none" points="162.25,52.04,169.25,32.04,176.25,52.04,162.25,52.04" style="stroke:#383838;stroke-width:1.0;"/><!--MD5=[acebdfe683417448ca40554e06d8856d]
reverse link Procedure to LinSearch--><path codeLine="27" d="M243.82,20 C243.82,20 337,20 337,20 C337,20 337,68.03 337,91.67 " fill="none" id="Procedure-backto-LinSearch" style="stroke:#383838;stroke-width:1.0;"/><polygon fill="none" points="243.82,27,223.82,20,243.82,13,243.82,27" style="stroke:#383838;stroke-width:1.0;"/><!--MD5=[254510b782971b5120009bdae8361ae1]
reverse link Enumerator to SeqInFileEnumerator--><path codeLine="29" d="M584,137.04 C584,137.04 584,176.91 584,176.91 " fill="none" id="Enumerator-backto-SeqInFileEnumerator" style="stroke:#383838;stroke-width:1.0;"/><polygon fill="none" points="577,137.04,584,117.04,591,137.04,577,137.04" style="stroke:#383838;stroke-width:1.0;"/><!--MD5=[563c939211c5433b4847f901208c2d86]
link StringStreamEnumerator to Enumerator--><path codeLine="30" d="M584,32.04 C584,32.04 584,71.91 584,71.91 " fill="none" id="StringStreamEnumerator-to-Enumerator" style="stroke:#383838;stroke-width:1.0;"/><polygon fill="none" points="591,71.91,584,91.91,577,71.91,591,71.91" style="stroke:#383838;stroke-width:1.0;"/><!--MD5=[7d819d03c096a9b3b5a09ee4c127e55b]
link IntervalEnumerator to Enumerator--><path codeLine="31" d="M513.27,105 C513.27,105 528.36,105 528.36,105 " fill="none" id="IntervalEnumerator-to-Enumerator" style="stroke:#383838;stroke-width:1.0;"/><polygon fill="none" points="528.36,98,548.36,105,528.36,112,528.36,98" style="stroke:#383838;stroke-width:1.0;"/><!--MD5=[b75473cb1ca59d3059d5b4bc79bc9d79]
reverse link Enumerator to ArrayEnumerator--><path codeLine="32" d="M639.68,105 C639.68,105 654.91,105 654.91,105 " fill="none" id="Enumerator-backto-ArrayEnumerator" style="stroke:#383838;stroke-width:1.0;"/><polygon fill="none" points="639.68,112,619.68,105,639.68,98,639.68,112" style="stroke:#383838;stroke-width:1.0;"/><!--MD5=[4ed7dc8e2991c417fd3cbda5e13ecda5]
reverse link Summation to Counting--><path codeLine="34" d="M143,137.04 C143,137.04 143,176.91 143,176.91 " fill="none" id="Summation-backto-Counting" style="stroke:#383838;stroke-width:1.0;"/><polygon fill="none" points="136,137.04,143,117.04,150,137.04,136,137.04" style="stroke:#383838;stroke-width:1.0;"/><!--MD5=[18cb812f4fedce823f21ab9212d892f6]
link MaxSearch to Greater--><path codeLine="36" d="M40,117.04 C40,117.04 40,171.91 40,171.91 " fill="none" id="MaxSearch-to-Greater" style="stroke:#383838;stroke-width:1.0;stroke-dasharray:7.0,7.0;"/><polygon fill="#383838" points="40,176.91,44,167.91,40,171.91,36,167.91,40,176.91" style="stroke:#383838;stroke-width:1.0;"/><!--MD5=[87948a62596eb0d0b970149d0f9d03bf]
reverse link Less to MaxSearch--><path codeLine="37" d="M40,37.04 C40,37.04 40,91.91 40,91.91 " fill="none" id="Less-backto-MaxSearch" style="stroke:#383838;stroke-width:1.0;stroke-dasharray:7.0,7.0;"/><polygon fill="#383838" points="40,32.04,36,41.04,40,37.04,44,41.04,40,32.04" style="stroke:#383838;stroke-width:1.0;"/><!--MD5=[458e267743ec547e61ad324ed4aefe15]
@startuml gtlib

skinparam Monochrome true
skinparam linetype ortho
hide circle
hide enum methods
hide enum members
hide class methods
hide class members

class Procedure
class Enumerator
class MaxSearch
class Selection
class SeqInFileEnumerator
class StringStreamEnumerator
class Summation
class LinSearch
class IntervalEnumerator
class ArrayEnumerator
class Counting
class Greater
class Less

MaxSearch -up-|> Procedure
Selection -up-|> Procedure
Summation -up-|> Procedure
LinSearch -up-|> Procedure

SeqInFileEnumerator -up-|> Enumerator
StringStreamEnumerator -down-|> Enumerator
IntervalEnumerator -right-|> Enumerator
ArrayEnumerator -left-|> Enumerator

Counting -up-|> Summation

MaxSearch ..> Greater
MaxSearch .up.> Less

@enduml

PlantUML version 1.2022.0(Tue Jan 11 17:16:42 CET 2022)
(GPL source distribution)
Java Runtime: Java(TM) SE Runtime Environment
JVM: Java HotSpot(TM) 64-Bit Server VM
Default Encoding: Cp1252
Language: en
Country: GB
--></g></svg>