<?xml version="1.0" encoding="UTF-8" standalone="no"?><svg xmlns="http://www.w3.org/2000/svg" xmlns:xlink="http://www.w3.org/1999/xlink" contentScriptType="application/ecmascript" contentStyleType="text/css" height="380px" preserveAspectRatio="none" style="width:618px;height:380px;background:#FFFFFF;" version="1.1" viewBox="0 0 618 380" width="618px" zoomAndPan="magnify"><defs><filter height="300%" id="f2j11cs6bulk" width="300%" x="-1" y="-1"><feGaussianBlur result="blurOut" stdDeviation="2.0"/><feColorMatrix in="blurOut" result="blurOut2" type="matrix" values="0 0 0 0 0 0 0 0 0 0 0 0 0 0 0 0 0 0 .4 0"/><feOffset dx="4.0" dy="4.0" in="blurOut2" result="blurOut3"/><feBlend in="SourceGraphic" in2="blurOut3" mode="normal"/></filter></defs><g><!--MD5=[7e20e022571e30ec1001cf6eabd7f3e2]
class Model--><rect codeLine="12" fill="#F8F8F8" filter="url(#f2j11cs6bulk)" height="23.9688" id="Model" style="stroke:#383838;stroke-width:1.5;" width="43" x="354.5" y="7"/><text fill="#000000" font-family="sans-serif" font-size="12" lengthAdjust="spacing" textLength="37" x="357.5" y="23.1387">Model</text><!--MD5=[6aab0676cf34802cefb399a4f3777211]
class ComponentType--><rect codeLine="13" fill="#F8F8F8" filter="url(#f2j11cs6bulk)" height="23.9688" id="ComponentType" style="stroke:#383838;stroke-width:1.5;" width="107" x="233.5" y="259"/><text fill="#000000" font-family="sans-serif" font-size="12" lengthAdjust="spacing" textLength="101" x="236.5" y="275.1387">ComponentType</text><!--MD5=[5e67de1afa87a34c5cf044797ba6a12f]
class MethodType--><rect codeLine="14" fill="#F8F8F8" filter="url(#f2j11cs6bulk)" height="23.9688" id="MethodType" style="stroke:#383838;stroke-width:1.5;" width="82" x="81" y="91"/><text fill="#000000" font-family="sans-serif" font-size="12" lengthAdjust="spacing" textLength="76" x="84" y="107.1387">MethodType</text><!--MD5=[f58fd777f29c17413488bea9e7cfcca3]
class Member--><rect codeLine="15" fill="#F8F8F8" filter="url(#f2j11cs6bulk)" height="23.9688" id="Member" style="stroke:#383838;stroke-width:1.5;" width="56" x="7" y="259"/><text fill="#000000" font-family="sans-serif" font-size="12" lengthAdjust="spacing" textLength="50" x="10" y="275.1387">Member</text><!--MD5=[5165f43a09867253b9fbe1cad89a5d49]
class CustomMethod--><rect codeLine="16" fill="#F8F8F8" filter="url(#f2j11cs6bulk)" height="23.9688" id="CustomMethod" style="stroke:#383838;stroke-width:1.5;" width="100" x="98" y="259"/><text fill="#000000" font-family="sans-serif" font-size="12" lengthAdjust="spacing" textLength="94" x="101" y="275.1387">CustomMethod</text><!--MD5=[4e13963c9dc916a21a8436ef39422b32]
class Component--><rect codeLine="17" fill="#F8F8F8" filter="url(#f2j11cs6bulk)" height="23.9688" id="Component" style="stroke:#383838;stroke-width:1.5;" width="78" x="109" y="175"/><text fill="#000000" font-family="sans-serif" font-size="12" lengthAdjust="spacing" textLength="72" x="112" y="191.1387">Component</text><!--MD5=[1e7e2556068960ccc5ff0e8b9ae795bf]
class CodeBlock--><rect codeLine="18" fill="#F8F8F8" filter="url(#f2j11cs6bulk)" height="23.9688" id="CodeBlock" style="stroke:#383838;stroke-width:1.5;" width="71" x="340.5" y="91"/><text fill="#000000" font-family="sans-serif" font-size="12" lengthAdjust="spacing" textLength="65" x="343.5" y="107.1387">CodeBlock</text><!--MD5=[eb0f4986160aea42d9ece72995cb24c7]
class Struct--><rect codeLine="19" fill="#F8F8F8" filter="url(#f2j11cs6bulk)" height="23.9688" id="Struct" style="stroke:#383838;stroke-width:1.5;" width="44" x="439" y="175"/><text fill="#000000" font-family="sans-serif" font-size="12" lengthAdjust="spacing" textLength="38" x="442" y="191.1387">Struct</text><!--MD5=[73bc57207b51c3b467be125ed50baf39]
class SaveData--><rect codeLine="20" fill="#F8F8F8" filter="url(#f2j11cs6bulk)" height="23.9688" id="SaveData" style="stroke:#383838;stroke-width:1.5;" width="66" x="488" y="259"/><text fill="#000000" font-family="sans-serif" font-size="12" lengthAdjust="spacing" textLength="60" x="491" y="275.1387">SaveData</text><!--MD5=[ce9560a30efbe5dc54bef772049eaadc]
class DataAccess--><rect fill="#F8F8F8" filter="url(#f2j11cs6bulk)" height="23.9688" id="DataAccess" style="stroke:#383838;stroke-width:1.5;" width="80" x="524" y="343"/><text fill="#000000" font-family="sans-serif" font-size="12" lengthAdjust="spacing" textLength="74" x="527" y="359.1387">DataAccess</text><!--MD5=[bdba4f83a8f3a0df7a39dcf0be1ee81a]
link Model to Component--><path codeLine="22" d="M354.49,19 C302.64,19 175,19 175,19 C175,19 175,169.92 175,169.92 " fill="none" id="Model-to-Component" style="stroke:#383838;stroke-width:1.0;stroke-dasharray:7.0,7.0;"/><polygon fill="#383838" points="175,174.92,179,165.92,175,169.92,171,165.92,175,174.92" style="stroke:#383838;stroke-width:1.0;"/><!--MD5=[37841379fcc86372cdc984204dc1977e]
link Model to CodeBlock--><path codeLine="23" d="M376,31.04 C376,31.04 376,85.99 376,85.99 " fill="none" id="Model-to-CodeBlock" style="stroke:#383838;stroke-width:1.0;stroke-dasharray:7.0,7.0;"/><polygon fill="#383838" points="376,90.99,380,81.99,376,85.99,372,81.99,376,90.99" style="stroke:#383838;stroke-width:1.0;"/><!--MD5=[712af21e067633db4a8f6d5390032a6e]
link Model to Struct--><path codeLine="24" d="M397.88,25 C425.19,25 468.33,25 468.33,25 C468.33,25 468.33,169.82 468.33,169.82 " fill="none" id="Model-to-Struct" style="stroke:#383838;stroke-width:1.0;stroke-dasharray:7.0,7.0;"/><polygon fill="#383838" points="468.33,174.82,472.33,165.82,468.33,169.82,464.33,165.82,468.33,174.82" style="stroke:#383838;stroke-width:1.0;"/><!--MD5=[91983d9b0fb22240b91b5c594ac69904]
link Model to DataAccess--><path codeLine="25" d="M397.72,13 C450.09,13 579,13 579,13 C579,13 579,337.83 579,337.83 " fill="none" id="Model-to-DataAccess" style="stroke:#383838;stroke-width:1.0;stroke-dasharray:7.0,7.0;"/><polygon fill="#383838" points="579,342.83,583,333.83,579,337.83,575,333.83,579,342.83" style="stroke:#383838;stroke-width:1.0;"/><!--MD5=[5e8899ce93567b2160febbbf1039bb17]
link Model to ComponentType--><path codeLine="26" d="M354.26,25 C333.33,25 304.83,25 304.83,25 C304.83,25 304.83,253.8 304.83,253.8 " fill="none" id="Model-to-ComponentType" style="stroke:#383838;stroke-width:1.0;stroke-dasharray:7.0,7.0;"/><polygon fill="#383838" points="304.83,258.8,308.83,249.8,304.83,253.8,300.83,249.8,304.83,258.8" style="stroke:#383838;stroke-width:1.0;"/><!--MD5=[bef001e920e05a5e0dcff01aa3a90183]
link Model to MethodType--><path codeLine="27" d="M354.34,13 C292.92,13 122,13 122,13 C122,13 122,85.86 122,85.86 " fill="none" id="Model-to-MethodType" style="stroke:#383838;stroke-width:1.0;stroke-dasharray:7.0,7.0;"/><polygon fill="#383838" points="122,90.86,126,81.86,122,85.86,118,81.86,122,90.86" style="stroke:#383838;stroke-width:1.0;"/><!--MD5=[deea300509e3cee7e4a9ccb449dad3ff]
link Model to SaveData--><path codeLine="28" d="M397.71,19 C438.16,19 521,19 521,19 C521,19 521,253.85 521,253.85 " fill="none" id="Model-to-SaveData" style="stroke:#383838;stroke-width:1.0;stroke-dasharray:7.0,7.0;"/><polygon fill="#383838" points="521,258.85,525,249.85,521,253.85,517,249.85,521,258.85" style="stroke:#383838;stroke-width:1.0;"/><!--MD5=[edae267f20d00c45e66b55ac57e8aba1]
link Component to ComponentType--><path codeLine="30" d="M187,187 C222.43,187 269.17,187 269.17,187 C269.17,187 269.17,253.96 269.17,253.96 " fill="none" id="Component-to-ComponentType" style="stroke:#383838;stroke-width:1.0;stroke-dasharray:7.0,7.0;"/><polygon fill="#383838" points="269.17,258.96,273.17,249.96,269.17,253.96,265.17,249.96,269.17,258.96" style="stroke:#383838;stroke-width:1.0;"/><!--MD5=[d7c31b5d275f6aa5bed54317b5693baa]
reverse link MethodType to Component--><path codeLine="31" d="M136,120.04 C136,120.04 136,174.99 136,174.99 " fill="none" id="MethodType-backto-Component" style="stroke:#383838;stroke-width:1.0;stroke-dasharray:7.0,7.0;"/><polygon fill="#383838" points="136,115.04,132,124.04,136,120.04,140,124.04,136,115.04" style="stroke:#383838;stroke-width:1.0;"/><!--MD5=[4fd84df694c7d57cb44a39e2dec32259]
link Component to CustomMethod--><path codeLine="32" d="M148,199.04 C148,199.04 148,253.99 148,253.99 " fill="none" id="Component-to-CustomMethod" style="stroke:#383838;stroke-width:1.0;stroke-dasharray:7.0,7.0;"/><polygon fill="#383838" points="148,258.99,152,249.99,148,253.99,144,249.99,148,258.99" style="stroke:#383838;stroke-width:1.0;"/><!--MD5=[b1ff95d87064ef81466dce1ac49d2825]
link Component to Member--><path codeLine="33" d="M108.8,187 C76.16,187 35,187 35,187 C35,187 35,253.96 35,253.96 " fill="none" id="Component-to-Member" style="stroke:#383838;stroke-width:1.0;stroke-dasharray:7.0,7.0;"/><polygon fill="#383838" points="35,258.96,39,249.96,35,253.96,31,249.96,35,258.96" style="stroke:#383838;stroke-width:1.0;"/><!--MD5=[18453f21d0c412001bd3cfc2214d8413]
link CodeBlock to Struct--><!--MD5=[755d32913c85ff3350ce854fdfd34aa8]
link Struct to SaveData--><!--MD5=[00b78ed353457b8af2cd12f7cbea6f00]
link SaveData to DataAccess--><!--MD5=[e5e99054e6fb2397bb38cff73e491a04]
@startuml Model-relations

skinparam Monochrome true
skinparam ClassAttributeIconSize 0
'skinparam groupInheritance 2
skinparam linetype ortho
hide circle
hide enum methods
hide enum members
hide class methods
hide class members

class Model
enum ComponentType
enum MethodType
class Member
class CustomMethod
class Component
class CodeBlock
class Struct
class SaveData

Model ..> Component
Model ..> CodeBlock
Model ..> Struct
Model ..> DataAccess
Model ..> ComponentType
Model ..> MethodType
Model ..> SaveData

Component ..> ComponentType
Component .up.> MethodType
Component ..> CustomMethod
Component ..> Member

' layout helper lines
CodeBlock .[hidden].> Struct
Struct .[hidden].> SaveData
SaveData .[hidden].> DataAccess

@enduml

@startuml Model-relations

skinparam Monochrome true
skinparam ClassAttributeIconSize 0
skinparam linetype ortho
hide circle
hide enum methods
hide enum members
hide class methods
hide class members

class Model
enum ComponentType
enum MethodType
class Member
class CustomMethod
class Component
class CodeBlock
class Struct
class SaveData

Model ..> Component
Model ..> CodeBlock
Model ..> Struct
Model ..> DataAccess
Model ..> ComponentType
Model ..> MethodType
Model ..> SaveData

Component ..> ComponentType
Component .up.> MethodType
Component ..> CustomMethod
Component ..> Member

CodeBlock .[hidden].> Struct
Struct .[hidden].> SaveData
SaveData .[hidden].> DataAccess

@enduml

PlantUML version 1.2022.0(Tue Jan 11 17:16:42 CET 2022)
(GPL source distribution)
Java Runtime: OpenJDK Runtime Environment
JVM: OpenJDK 64-Bit Server VM
Default Encoding: UTF-8
Language: en
Country: US
--></g></svg>