<?xml version="1.0" encoding="UTF-8" standalone="no"?><svg xmlns="http://www.w3.org/2000/svg" xmlns:xlink="http://www.w3.org/1999/xlink" contentScriptType="application/ecmascript" contentStyleType="text/css" height="386px" preserveAspectRatio="none" style="width:589px;height:386px;background:#FFFFFF;" version="1.1" viewBox="0 0 589 386" width="589px" zoomAndPan="magnify"><defs><filter height="300%" id="f2j11cs6bulk" width="300%" x="-1" y="-1"><feGaussianBlur result="blurOut" stdDeviation="2.0"/><feColorMatrix in="blurOut" result="blurOut2" type="matrix" values="0 0 0 0 0 0 0 0 0 0 0 0 0 0 0 0 0 0 .4 0"/><feOffset dx="4.0" dy="4.0" in="blurOut2" result="blurOut3"/><feBlend in="SourceGraphic" in2="blurOut3" mode="normal"/></filter></defs><g><!--MD5=[7e20e022571e30ec1001cf6eabd7f3e2]
class Model--><rect codeLine="12" fill="#F8F8F8" filter="url(#f2j11cs6bulk)" height="25.0938" id="Model" style="stroke:#383838;stroke-width:1.5;" width="39" x="334" y="7"/><text fill="#000000" font-family="sans-serif" font-size="12" lengthAdjust="spacing" textLength="33" x="337" y="24.457">Model</text><!--MD5=[6aab0676cf34802cefb399a4f3777211]
class ComponentType--><rect codeLine="13" fill="#F8F8F8" filter="url(#f2j11cs6bulk)" height="25.0938" id="ComponentType" style="stroke:#383838;stroke-width:1.5;" width="97" x="219" y="262"/><text fill="#000000" font-family="sans-serif" font-size="12" lengthAdjust="spacing" textLength="91" x="222" y="279.457">ComponentType</text><!--MD5=[5e67de1afa87a34c5cf044797ba6a12f]
class MethodType--><rect codeLine="14" fill="#F8F8F8" filter="url(#f2j11cs6bulk)" height="25.0938" id="MethodType" style="stroke:#383838;stroke-width:1.5;" width="72" x="71.5" y="92"/><text fill="#000000" font-family="sans-serif" font-size="12" lengthAdjust="spacing" textLength="66" x="74.5" y="109.457">MethodType</text><!--MD5=[f58fd777f29c17413488bea9e7cfcca3]
class Member--><rect codeLine="15" fill="#F8F8F8" filter="url(#f2j11cs6bulk)" height="25.0938" id="Member" style="stroke:#383838;stroke-width:1.5;" width="51" x="7" y="262"/><text fill="#000000" font-family="sans-serif" font-size="12" lengthAdjust="spacing" textLength="45" x="10" y="279.457">Member</text><!--MD5=[5165f43a09867253b9fbe1cad89a5d49]
class CustomMethod--><rect codeLine="16" fill="#F8F8F8" filter="url(#f2j11cs6bulk)" height="25.0938" id="CustomMethod" style="stroke:#383838;stroke-width:1.5;" width="90" x="93.5" y="262"/><text fill="#000000" font-family="sans-serif" font-size="12" lengthAdjust="spacing" textLength="84" x="96.5" y="279.457">CustomMethod</text><!--MD5=[4e13963c9dc916a21a8436ef39422b32]
class Component--><rect codeLine="17" fill="#F8F8F8" filter="url(#f2j11cs6bulk)" height="25.0938" id="Component" style="stroke:#383838;stroke-width:1.5;" width="71" x="103" y="177"/><text fill="#000000" font-family="sans-serif" font-size="12" lengthAdjust="spacing" textLength="65" x="106" y="194.457">Component</text><!--MD5=[1e7e2556068960ccc5ff0e8b9ae795bf]
class CodeBlock--><rect codeLine="18" fill="#F8F8F8" filter="url(#f2j11cs6bulk)" height="25.0938" id="CodeBlock" style="stroke:#383838;stroke-width:1.5;" width="66" x="320.5" y="92"/><text fill="#000000" font-family="sans-serif" font-size="12" lengthAdjust="spacing" textLength="60" x="323.5" y="109.457">CodeBlock</text><!--MD5=[eb0f4986160aea42d9ece72995cb24c7]
class Struct--><rect codeLine="19" fill="#F8F8F8" filter="url(#f2j11cs6bulk)" height="25.0938" id="Struct" style="stroke:#383838;stroke-width:1.5;" width="37" x="420" y="177"/><text fill="#000000" font-family="sans-serif" font-size="12" lengthAdjust="spacing" textLength="31" x="423" y="194.457">Struct</text><!--MD5=[73bc57207b51c3b467be125ed50baf39]
class SaveData--><rect codeLine="20" fill="#F8F8F8" filter="url(#f2j11cs6bulk)" height="25.0938" id="SaveData" style="stroke:#383838;stroke-width:1.5;" width="59" x="469" y="262"/><text fill="#000000" font-family="sans-serif" font-size="12" lengthAdjust="spacing" textLength="53" x="472" y="279.457">SaveData</text><!--MD5=[ce9560a30efbe5dc54bef772049eaadc]
class DataAccess--><rect fill="#F8F8F8" filter="url(#f2j11cs6bulk)" height="25.0938" id="DataAccess" style="stroke:#383838;stroke-width:1.5;" width="72" x="503.5" y="347"/><text fill="#000000" font-family="sans-serif" font-size="12" lengthAdjust="spacing" textLength="66" x="506.5" y="364.457">DataAccess</text><!--MD5=[bdba4f83a8f3a0df7a39dcf0be1ee81a]
link Model to Component--><path codeLine="22" d="M333.75,20 C284.24,20 158.75,20 158.75,20 C158.75,20 158.75,171.76 158.75,171.76 " fill="none" id="Model-to-Component" style="stroke:#383838;stroke-width:1.0;stroke-dasharray:7.0,7.0;"/><polygon fill="#383838" points="158.75,176.76,162.75,167.76,158.75,171.76,154.75,167.76,158.75,176.76" style="stroke:#383838;stroke-width:1.0;"/><!--MD5=[37841379fcc86372cdc984204dc1977e]
link Model to CodeBlock--><path codeLine="23" d="M353.5,32.04 C353.5,32.04 353.5,86.91 353.5,86.91 " fill="none" id="Model-to-CodeBlock" style="stroke:#383838;stroke-width:1.0;stroke-dasharray:7.0,7.0;"/><polygon fill="#383838" points="353.5,91.91,357.5,82.91,353.5,86.91,349.5,82.91,353.5,91.91" style="stroke:#383838;stroke-width:1.0;"/><!--MD5=[712af21e067633db4a8f6d5390032a6e]
link Model to Struct--><path codeLine="24" d="M373.28,26 C400.09,26 444.67,26 444.67,26 C444.67,26 444.67,171.94 444.67,171.94 " fill="none" id="Model-to-Struct" style="stroke:#383838;stroke-width:1.0;stroke-dasharray:7.0,7.0;"/><polygon fill="#383838" points="444.67,176.94,448.67,167.94,444.67,171.94,440.67,167.94,444.67,176.94" style="stroke:#383838;stroke-width:1.0;"/><!--MD5=[91983d9b0fb22240b91b5c594ac69904]
link Model to DataAccess--><path codeLine="25" d="M373.23,14 C423.38,14 551.75,14 551.75,14 C551.75,14 551.75,341.79 551.75,341.79 " fill="none" id="Model-to-DataAccess" style="stroke:#383838;stroke-width:1.0;stroke-dasharray:7.0,7.0;"/><polygon fill="#383838" points="551.75,346.79,555.75,337.79,551.75,341.79,547.75,337.79,551.75,346.79" style="stroke:#383838;stroke-width:1.0;"/><!--MD5=[5e8899ce93567b2160febbbf1039bb17]
link Model to ComponentType--><path codeLine="26" d="M333.68,26 C313.03,26 283.67,26 283.67,26 C283.67,26 283.67,256.84 283.67,256.84 " fill="none" id="Model-to-ComponentType" style="stroke:#383838;stroke-width:1.0;stroke-dasharray:7.0,7.0;"/><polygon fill="#383838" points="283.67,261.84,287.67,252.84,283.67,256.84,279.67,252.84,283.67,261.84" style="stroke:#383838;stroke-width:1.0;"/><!--MD5=[bef001e920e05a5e0dcff01aa3a90183]
link Model to MethodType--><path codeLine="27" d="M333.78,14 C275.41,14 107.5,14 107.5,14 C107.5,14 107.5,86.92 107.5,86.92 " fill="none" id="Model-to-MethodType" style="stroke:#383838;stroke-width:1.0;stroke-dasharray:7.0,7.0;"/><polygon fill="#383838" points="107.5,91.92,111.5,82.92,107.5,86.92,103.5,82.92,107.5,91.92" style="stroke:#383838;stroke-width:1.0;"/><!--MD5=[deea300509e3cee7e4a9ccb449dad3ff]
link Model to SaveData--><path codeLine="28" d="M373.06,20 C412.63,20 498.5,20 498.5,20 C498.5,20 498.5,256.88 498.5,256.88 " fill="none" id="Model-to-SaveData" style="stroke:#383838;stroke-width:1.0;stroke-dasharray:7.0,7.0;"/><polygon fill="#383838" points="498.5,261.88,502.5,252.88,498.5,256.88,494.5,252.88,498.5,261.88" style="stroke:#383838;stroke-width:1.0;"/><!--MD5=[edae267f20d00c45e66b55ac57e8aba1]
link Component to ComponentType--><path codeLine="30" d="M174.2,190 C207.26,190 251.33,190 251.33,190 C251.33,190 251.33,256.67 251.33,256.67 " fill="none" id="Component-to-ComponentType" style="stroke:#383838;stroke-width:1.0;stroke-dasharray:7.0,7.0;"/><polygon fill="#383838" points="251.33,261.67,255.33,252.67,251.33,256.67,247.33,252.67,251.33,261.67" style="stroke:#383838;stroke-width:1.0;"/><!--MD5=[d7c31b5d275f6aa5bed54317b5693baa]
reverse link MethodType to Component--><path codeLine="31" d="M123.25,122.04 C123.25,122.04 123.25,176.91 123.25,176.91 " fill="none" id="MethodType-backto-Component" style="stroke:#383838;stroke-width:1.0;stroke-dasharray:7.0,7.0;"/><polygon fill="#383838" points="123.25,117.04,119.25,126.04,123.25,122.04,127.25,126.04,123.25,117.04" style="stroke:#383838;stroke-width:1.0;"/><!--MD5=[4fd84df694c7d57cb44a39e2dec32259]
link Component to CustomMethod--><path codeLine="32" d="M138.5,202.04 C138.5,202.04 138.5,256.91 138.5,256.91 " fill="none" id="Component-to-CustomMethod" style="stroke:#383838;stroke-width:1.0;stroke-dasharray:7.0,7.0;"/><polygon fill="#383838" points="138.5,261.91,142.5,252.91,138.5,256.91,134.5,252.91,138.5,261.91" style="stroke:#383838;stroke-width:1.0;"/><!--MD5=[b1ff95d87064ef81466dce1ac49d2825]
link Component to Member--><path codeLine="33" d="M102.91,190 C72.11,190 32.5,190 32.5,190 C32.5,190 32.5,256.67 32.5,256.67 " fill="none" id="Component-to-Member" style="stroke:#383838;stroke-width:1.0;stroke-dasharray:7.0,7.0;"/><polygon fill="#383838" points="32.5,261.67,36.5,252.67,32.5,256.67,28.5,252.67,32.5,261.67" style="stroke:#383838;stroke-width:1.0;"/><!--MD5=[18453f21d0c412001bd3cfc2214d8413]
link CodeBlock to Struct--><!--MD5=[755d32913c85ff3350ce854fdfd34aa8]
link Struct to SaveData--><!--MD5=[00b78ed353457b8af2cd12f7cbea6f00]
link SaveData to DataAccess--><!--MD5=[71e7fc1a9439af9468fdc1f4d46e2cc5]
@startuml Model-relations

skinparam Monochrome true
skinparam ClassAttributeIconSize 0
'skinparam groupInheritance 2
skinparam linetype ortho
hide circle
hide enum methods
hide enum members
hide class methods
hide class members

class Model
enum ComponentType
enum MethodType
class Member
class CustomMethod
class Component
class CodeBlock
class Struct
class SaveData

Model ..> Component
Model ..> CodeBlock
Model ..> Struct
Model ..> DataAccess
Model ..> ComponentType
Model ..> MethodType
Model ..> SaveData

Component ..> ComponentType
Component .up.> MethodType
Component ..> CustomMethod
Component ..> Member

' layout helper lines
CodeBlock .[hidden].> Struct
Struct .[hidden].> SaveData
SaveData .[hidden].> DataAccess

@enduml

@startuml Model-relations

skinparam Monochrome true
skinparam ClassAttributeIconSize 0
skinparam linetype ortho
hide circle
hide enum methods
hide enum members
hide class methods
hide class members

class Model
enum ComponentType
enum MethodType
class Member
class CustomMethod
class Component
class CodeBlock
class Struct
class SaveData

Model ..> Component
Model ..> CodeBlock
Model ..> Struct
Model ..> DataAccess
Model ..> ComponentType
Model ..> MethodType
Model ..> SaveData

Component ..> ComponentType
Component .up.> MethodType
Component ..> CustomMethod
Component ..> Member

CodeBlock .[hidden].> Struct
Struct .[hidden].> SaveData
SaveData .[hidden].> DataAccess

@enduml

PlantUML version 1.2022.0(Tue Jan 11 17:16:42 CET 2022)
(GPL source distribution)
Java Runtime: Java(TM) SE Runtime Environment
JVM: Java HotSpot(TM) 64-Bit Server VM
Default Encoding: Cp1252
Language: en
Country: GB
--></g></svg>