<?xml version="1.0" encoding="UTF-8" standalone="no"?><svg xmlns="http://www.w3.org/2000/svg" xmlns:xlink="http://www.w3.org/1999/xlink" contentScriptType="application/ecmascript" contentStyleType="text/css" height="741px" preserveAspectRatio="none" style="width:914px;height:741px;background:#FFFFFF;" version="1.1" viewBox="0 0 914 741" width="914px" zoomAndPan="magnify"><defs><filter height="300%" id="f11etole2w65j0" width="300%" x="-1" y="-1"><feGaussianBlur result="blurOut" stdDeviation="2.0"/><feColorMatrix in="blurOut" result="blurOut2" type="matrix" values="0 0 0 0 0 0 0 0 0 0 0 0 0 0 0 0 0 0 .4 0"/><feOffset dx="4.0" dy="4.0" in="blurOut2" result="blurOut3"/><feBlend in="SourceGraphic" in2="blurOut3" mode="normal"/></filter></defs><g><!--MD5=[463807448abbd857e079b8d33eefbd21]
cluster Projektkezelés--><rect fill="#FFFFFF" filter="url(#f11etole2w65j0)" height="254" style="stroke:#000000;stroke-width:1.5;" width="219" x="158.5" y="11"/><text fill="#000000" font-family="sans-serif" font-size="14" font-weight="bold" lengthAdjust="spacing" textLength="117" x="209.5" y="25.9951">Projektkezelés</text><!--MD5=[b1efc82414bfb9d2901f5c16edbc31cb]
cluster Komponensek--><rect fill="#FFFFFF" filter="url(#f11etole2w65j0)" height="440" style="stroke:#000000;stroke-width:1.5;" width="368" x="84" y="289"/><text fill="#000000" font-family="sans-serif" font-size="14" font-weight="bold" lengthAdjust="spacing" textLength="113" x="211.5" y="303.9951">Komponensek</text><!--MD5=[33a566adeebfbf3dc06723b980248ccd]
cluster Main List--><rect fill="#FFFFFF" filter="url(#f11etole2w65j0)" height="263" style="stroke:#000000;stroke-width:1.5;" width="235" x="647.5" y="7"/><text fill="#000000" font-family="sans-serif" font-size="14" font-weight="bold" lengthAdjust="spacing" textLength="69" x="730.5" y="21.9951">Main List</text><!--MD5=[34151a8abcd97a1edf9c3e03079a8257]
cluster Forráskód--><rect fill="#FFFFFF" filter="url(#f11etole2w65j0)" height="355" style="stroke:#000000;stroke-width:1.5;" width="274" x="628" y="294"/><text fill="#000000" font-family="sans-serif" font-size="14" font-weight="bold" lengthAdjust="spacing" textLength="80" x="725" y="308.9951">Forráskód</text><ellipse cx="268.1693" cy="67.1339" fill="#F8F8F8" filter="url(#f11etole2w65j0)" rx="93.6693" ry="21.1339" style="stroke:#383838;stroke-width:1.5;"/><text fill="#000000" font-family="sans-serif" font-size="14" lengthAdjust="spacing" textLength="150" x="193.1693" y="69.9805">Új projekt létrehozása</text><ellipse cx="268.1551" cy="158.031" fill="#F8F8F8" filter="url(#f11etole2w65j0)" rx="78.1551" ry="18.031" style="stroke:#383838;stroke-width:1.5;"/><text fill="#000000" font-family="sans-serif" font-size="14" lengthAdjust="spacing" textLength="114" x="208.7659" y="161.6166">Projekt mentése</text><ellipse cx="267.7839" cy="229.8568" fill="#F8F8F8" filter="url(#f11etole2w65j0)" rx="79.7839" ry="18.3568" style="stroke:#383838;stroke-width:1.5;"/><text fill="#000000" font-family="sans-serif" font-size="14" lengthAdjust="spacing" textLength="118" x="207.0356" y="233.2613">Projekt betöltése</text><ellipse cx="268.0935" cy="348.8187" fill="#F8F8F8" filter="url(#f11etole2w65j0)" rx="109.5935" ry="24.3187" style="stroke:#383838;stroke-width:1.5;"/><text fill="#000000" font-family="sans-serif" font-size="14" lengthAdjust="spacing" textLength="185" x="175.5935" y="351.6654">Új komponens létrehozása</text><ellipse cx="267.9721" cy="454.7944" fill="#F8F8F8" filter="url(#f11etole2w65j0)" rx="134.4721" ry="29.2944" style="stroke:#383838;stroke-width:1.5;"/><text fill="#000000" font-family="sans-serif" font-size="14" lengthAdjust="spacing" textLength="238" x="148.9721" y="457.6411">Komponens adatainak módosítása</text><ellipse cx="267.7652" cy="571.053" fill="#F8F8F8" filter="url(#f11etole2w65j0)" rx="163.2652" ry="35.053" style="stroke:#383838;stroke-width:1.5;"/><text fill="#000000" font-family="sans-serif" font-size="14" lengthAdjust="spacing" textLength="298" x="118.7652" y="573.8997">Új adattag hozzáadása egy komponenshez</text><ellipse cx="268.1058" cy="677.0212" fill="#F8F8F8" filter="url(#f11etole2w65j0)" rx="168.1058" ry="36.0212" style="stroke:#383838;stroke-width:1.5;"/><text fill="#000000" font-family="sans-serif" font-size="14" lengthAdjust="spacing" textLength="308" x="114.1058" y="679.8678">Új metódus hozzáadása egy komponenshez</text><ellipse cx="764.8371" cy="65.1674" fill="#F8F8F8" filter="url(#f11etole2w65j0)" rx="101.3371" ry="22.6674" style="stroke:#383838;stroke-width:1.5;"/><text fill="#000000" font-family="sans-serif" font-size="14" lengthAdjust="spacing" textLength="167" x="681.3371" y="68.0141">Új kódblokk hozzáadása</text><ellipse cx="764.7771" cy="159.9554" fill="#F8F8F8" filter="url(#f11etole2w65j0)" rx="92.7771" ry="20.9554" style="stroke:#383838;stroke-width:1.5;"/><text fill="#000000" font-family="sans-serif" font-size="14" lengthAdjust="spacing" textLength="148" x="690.7771" y="162.8021">Kódblokk módosítása</text><ellipse cx="764.8735" cy="234.7747" fill="#F8F8F8" filter="url(#f11etole2w65j0)" rx="79.3735" ry="18.2747" style="stroke:#383838;stroke-width:1.5;"/><text fill="#000000" font-family="sans-serif" font-size="14" lengthAdjust="spacing" textLength="117" x="704.4676" y="238.2248">Listaelem törlése</text><ellipse cx="765.0368" cy="348.8074" fill="#F8F8F8" filter="url(#f11etole2w65j0)" rx="87.0368" ry="19.8074" style="stroke:#383838;stroke-width:1.5;"/><text fill="#000000" font-family="sans-serif" font-size="14" lengthAdjust="spacing" textLength="135" x="697.5368" y="351.654">Forrás legenerálása</text><ellipse cx="764.9948" cy="437.899" fill="#F8F8F8" filter="url(#f11etole2w65j0)" rx="74.9948" ry="17.399" style="stroke:#383838;stroke-width:1.5;"/><text fill="#000000" font-family="sans-serif" font-size="14" lengthAdjust="spacing" textLength="106" x="708.9948" y="441.6465">Forrás fordítása</text><ellipse cx="764.9455" cy="526.1891" fill="#F8F8F8" filter="url(#f11etole2w65j0)" rx="81.4455" ry="18.6891" style="stroke:#383838;stroke-width:1.5;"/><text fill="#000000" font-family="sans-serif" font-size="14" lengthAdjust="spacing" textLength="122" x="702.8109" y="529.409">Program futtatása</text><ellipse cx="765.241" cy="606.1482" fill="#F8F8F8" filter="url(#f11etole2w65j0)" rx="121.241" ry="26.6482" style="stroke:#383838;stroke-width:1.5;"/><text fill="#000000" font-family="sans-serif" font-size="14" lengthAdjust="spacing" textLength="210" x="660.241" y="608.9949">Program futásának megállítása</text><!--MD5=[8fc3522a43f8c7199df5e09e5bb0188e]
entity user--><ellipse cx="540" cy="318" fill="#F8F8F8" filter="url(#f11etole2w65j0)" rx="8" ry="8" style="stroke:#383838;stroke-width:1.5;"/><path d="M540,326 L540,353 M527,334 L553,334 M540,353 L527,368 M540,353 L553,368 " fill="none" filter="url(#f11etole2w65j0)" style="stroke:#383838;stroke-width:1.5;"/><text fill="#000000" font-family="sans-serif" font-size="14" lengthAdjust="spacing" textLength="82" x="499" y="386.4951">Felhasználó</text><!--MD5=[0b5b92e0741101991617066d5970242e]
link new_project to user--><path d="M355.67,74.41 C391.87,81.58 431.94,95.43 460,122 C512.27,171.49 529.97,257.35 535.95,308.1 " fill="none" id="new_project-user" style="stroke:#383838;stroke-width:1.0;"/><!--MD5=[9b7949d4183358dc2b17085558016767]
link save_project to user--><path d="M346,157.13 C383.6,160.3 427.59,169.73 460,194 C497.35,221.97 518.39,272.64 529.21,308.42 " fill="none" id="save_project-user" style="stroke:#383838;stroke-width:1.0;"/><!--MD5=[084cf34c9ffea55c206955772cdf3df1]
link load_project to user--><path d="M310.82,245.81 C349.84,260.86 409.45,284.62 460,308 C472.76,313.9 486.43,320.79 498.76,327.22 " fill="none" id="load_project-user" style="stroke:#383838;stroke-width:1.0;"/><!--MD5=[373348e35eec5b0bd88d50eeadd0193d]
link new_component to user--><path d="M377.65,349 C420.44,349 466.9,349 498.93,349 " fill="none" id="new_component-user" style="stroke:#383838;stroke-width:1.0;"/><!--MD5=[921da6a8b9a6a5e671d75f0ab4bbe6c5]
link modify_component to user--><path d="M349.09,431.42 C383.69,420.4 424.34,406.33 460,391 C472.84,385.48 486.42,378.65 498.63,372.11 " fill="none" id="modify_component-user" style="stroke:#383838;stroke-width:1.0;"/><!--MD5=[14281d50282c881ad816c873fdd1db0d]
link add_member to user--><path d="M382.16,545.69 C409.86,535.51 437.88,521.42 460,502 C494.04,472.12 515.46,424.02 527.27,389.73 " fill="none" id="add_member-user" style="stroke:#383838;stroke-width:1.0;"/><!--MD5=[eb2ccce961f37235fe51dd387f8498e2]
link add_method to user--><path d="M406.7,656.54 C426.45,648.65 445.1,637.83 460,623 C523.35,559.98 536.64,449.61 538.97,389.99 " fill="none" id="add_method-user" style="stroke:#383838;stroke-width:1.0;"/><!--MD5=[9c968b199d5d01d1890339a185558ca6]
link user to add_codeblock--><path d="M544.79,308.23 C551.53,257.98 570.01,172.89 620,121 C638.8,101.49 665.18,88.66 690.23,80.27 " fill="none" id="user-add_codeblock" style="stroke:#383838;stroke-width:1.0;"/><!--MD5=[eaacfcfa42c8fd6b1be123782b9bcf28]
link user to modify_codeblock--><path d="M552.35,308.36 C563.92,274.29 585.2,226.87 620,199 C637.89,184.67 660.62,175.59 682.71,169.84 " fill="none" id="user-modify_codeblock" style="stroke:#383838;stroke-width:1.0;"/><!--MD5=[5b3bc34736159aeee360ec2618520bb1]
link user to delete_list_item--><path d="M581.13,328.49 C624.01,306.56 691.2,272.22 731.09,251.82 " fill="none" id="user-delete_list_item" style="stroke:#383838;stroke-width:1.0;"/><!--MD5=[0380d5ac10dcfeb5418525362c8c47dd]
link user to generate_source--><path d="M581.13,349 C608.09,349 644.65,349 678,349 " fill="none" id="user-generate_source" style="stroke:#383838;stroke-width:1.0;"/><!--MD5=[32da9c2d9c3bebf67e2dcda44daa9640]
link user to compile_source--><path d="M581.28,368.73 C593.6,374.53 607.26,380.73 620,386 C653.65,399.92 692.52,413.83 721.39,423.76 " fill="none" id="user-compile_source" style="stroke:#383838;stroke-width:1.0;"/><!--MD5=[c2b4b2d4118c2a7f1e1e7ab515f7f02f]
link user to run_program--><path d="M558.4,389.66 C571.75,416.6 592.57,450.9 620,473 C644.38,492.64 676.71,505.41 704.57,513.49 " fill="none" id="user-run_program" style="stroke:#383838;stroke-width:1.0;"/><!--MD5=[9ea2362fc56d6401e2b2c14b543af876]
link user to stop_program--><path d="M545.3,389.81 C552.5,437.63 571.36,516.13 620,562 C633.41,574.64 650.35,583.66 667.87,590.09 " fill="none" id="user-stop_program" style="stroke:#383838;stroke-width:1.0;"/><!--MD5=[8cd4bff9fe2349415334376716076119]
reverse link save_project to new_project--><path d="M268,134.51 C268,120.22 268,102.12 268,88.26 " fill="none" id="save_project-backto-new_project" style="stroke:#383838;stroke-width:1.0;stroke-dasharray:7.0,7.0;"/><polygon fill="#383838" points="268,139.58,272,130.58,268,134.58,264,130.58,268,139.58" style="stroke:#383838;stroke-width:1.0;"/><text fill="#000000" font-family="sans-serif" font-size="13" lengthAdjust="spacing" textLength="61" x="226" y="118.5669">«include»</text><!--MD5=[8274493f4cb634113da24aca16e046ee]
link modify_component to new_component--><path d="M268,425.47 C268,410.96 268,393.51 268,378.94 " fill="none" id="modify_component-to-new_component" style="stroke:#383838;stroke-width:1.0;stroke-dasharray:7.0,7.0;"/><polygon fill="#383838" points="268,373.71,264,382.71,268,378.71,272,382.71,268,373.71" style="stroke:#383838;stroke-width:1.0;"/><text fill="#000000" font-family="sans-serif" font-size="13" lengthAdjust="spacing" textLength="60" x="226.5" y="404.0669">«extend»</text><!--MD5=[46a7acf0c3504be74190cc238f728e28]
link add_member to modify_component--><path d="M268,535.88 C268,521.27 268,504.35 268,489.78 " fill="none" id="add_member-to-modify_component" style="stroke:#383838;stroke-width:1.0;stroke-dasharray:7.0,7.0;"/><polygon fill="#383838" points="268,484.53,264,493.53,268,489.53,272,493.53,268,484.53" style="stroke:#383838;stroke-width:1.0;"/><text fill="#000000" font-family="sans-serif" font-size="13" lengthAdjust="spacing" textLength="60" x="226.5" y="514.8169">«extend»</text><!--MD5=[a091f8058cfb2f4d6db54b98fea5558e]
link add_method to modify_component--><path d="M136.73,654.33 C77.44,636.78 24.49,606.36 44,554.5 C60.56,510.5 104.54,485.95 149.19,472.25 " fill="none" id="add_method-to-modify_component" style="stroke:#383838;stroke-width:1.0;stroke-dasharray:7.0,7.0;"/><polygon fill="#383838" points="154.07,470.8,144.3019,469.5414,149.2789,472.2302,146.5902,477.2072,154.07,470.8" style="stroke:#383838;stroke-width:1.0;"/><text fill="#000000" font-family="sans-serif" font-size="13" lengthAdjust="spacing" textLength="60" x="7" y="567.5669">«extend»</text><!--MD5=[9520a4349e9445937594d0e3b37d78f7]
reverse link add_codeblock to modify_codeblock--><path d="M765,92.95 C765,107.65 765,125.38 765,138.92 " fill="none" id="add_codeblock-backto-modify_codeblock" style="stroke:#383838;stroke-width:1.0;stroke-dasharray:7.0,7.0;"/><polygon fill="#383838" points="765,87.68,761,96.68,765,92.68,769,96.68,765,87.68" style="stroke:#383838;stroke-width:1.0;"/><text fill="#000000" font-family="sans-serif" font-size="13" lengthAdjust="spacing" textLength="60" x="723.5" y="117.8169">«extend»</text><!--MD5=[a935ca5183b5db66aedfb18d87b45814]
reverse link generate_source to compile_source--><path d="M765,374.29 C765,389.03 765,407.24 765,420.42 " fill="none" id="generate_source-backto-compile_source" style="stroke:#383838;stroke-width:1.0;stroke-dasharray:7.0,7.0;"/><polygon fill="#383838" points="765,369.03,761,378.03,765,374.03,769,378.03,765,369.03" style="stroke:#383838;stroke-width:1.0;"/><text fill="#000000" font-family="sans-serif" font-size="13" lengthAdjust="spacing" textLength="61" x="723" y="399.3169">«include»</text><!--MD5=[b7407050374ca4adc73502e9087be6bc]
reverse link compile_source to run_program--><path d="M765,460.86 C765,475.32 765,493.77 765,507.34 " fill="none" id="compile_source-backto-run_program" style="stroke:#383838;stroke-width:1.0;stroke-dasharray:7.0,7.0;"/><polygon fill="#383838" points="765,455.74,761,464.74,765,460.74,769,464.74,765,455.74" style="stroke:#383838;stroke-width:1.0;"/><text fill="#000000" font-family="sans-serif" font-size="13" lengthAdjust="spacing" textLength="61" x="723" y="486.0669">«include»</text><!--MD5=[40860e1b60ddb0a0267949f750cee0f6]
@startuml Use-Case

skinparam Monochrome true

actor :Felhasználó: as user

rectangle Projektkezelés {
    (Új projekt létrehozása) as new_project
    (Projekt mentése) as save_project
    (Projekt betöltése) as load_project
}

rectangle Komponensek {
    (Új komponens létrehozása) as new_component
    (Komponens adatainak módosítása) as modify_component
    (Új adattag hozzáadása egy komponenshez) as add_member
    (Új metódus hozzáadása egy komponenshez) as add_method
}

rectangle "Main List" {
    (Új kódblokk hozzáadása) as add_codeblock
    (Kódblokk módosítása) as modify_codeblock
    (Listaelem törlése) as delete_list_item
}

rectangle Forráskód {
    (Forrás legenerálása) as generate_source
    (Forrás fordítása) as compile_source
    (Program futtatása) as run_program
    (Program futásának megállítása) as stop_program
}

left to right direction
user -up- new_project
user -up- save_project
user -up- load_project
user -up- new_component
user -up- modify_component
user -up- add_member
user -up- add_method
user - - add_codeblock
user - - modify_codeblock
user - - delete_list_item
user - - generate_source
user - - compile_source
user - - run_program
user - - stop_program

new_project .left.> save_project : <<include>>
new_component <.left. modify_component : <<extend>>
modify_component <.left. add_member : <<extend>>
modify_component <.left. add_method : <<extend>>
modify_codeblock .left.> add_codeblock : <<extend>>
compile_source .left.> generate_source : <<include>>
run_program .left.> compile_source : <<include>>

@enduml

PlantUML version 1.2022.0(Tue Jan 11 17:16:42 CET 2022)
(GPL source distribution)
Java Runtime: OpenJDK Runtime Environment
JVM: OpenJDK 64-Bit Server VM
Default Encoding: UTF-8
Language: en
Country: US
--></g></svg>