<?xml version="1.0" encoding="UTF-8" standalone="no"?><svg xmlns="http://www.w3.org/2000/svg" xmlns:xlink="http://www.w3.org/1999/xlink" contentScriptType="application/ecmascript" contentStyleType="text/css" height="800px" preserveAspectRatio="none" style="width:798px;height:800px;background:#FFFFFF;" version="1.1" viewBox="0 0 798 800" width="798px" zoomAndPan="magnify"><defs><filter height="300%" id="f7470pm5cfkus" width="300%" x="-1" y="-1"><feGaussianBlur result="blurOut" stdDeviation="2.0"/><feColorMatrix in="blurOut" result="blurOut2" type="matrix" values="0 0 0 0 0 0 0 0 0 0 0 0 0 0 0 0 0 0 .4 0"/><feOffset dx="4.0" dy="4.0" in="blurOut2" result="blurOut3"/><feBlend in="SourceGraphic" in2="blurOut3" mode="normal"/></filter></defs><g><!--MD5=[7e20e022571e30ec1001cf6eabd7f3e2]
class Model--><rect codeLine="12" fill="#F8F8F8" filter="url(#f7470pm5cfkus)" height="23.9688" id="Model" style="stroke:#383838;stroke-width:1.5;" width="43" x="422" y="343"/><text fill="#000000" font-family="sans-serif" font-size="12" lengthAdjust="spacing" textLength="37" x="425" y="359.1387">Model</text><!--MD5=[4e13963c9dc916a21a8436ef39422b32]
class Component--><rect codeLine="13" fill="#F8F8F8" filter="url(#f7470pm5cfkus)" height="23.9688" id="Component" style="stroke:#383838;stroke-width:1.5;" width="78" x="229.5" y="427"/><text fill="#000000" font-family="sans-serif" font-size="12" lengthAdjust="spacing" textLength="72" x="232.5" y="443.1387">Component</text><!--MD5=[6aab0676cf34802cefb399a4f3777211]
class ComponentType--><rect codeLine="14" fill="#F8F8F8" filter="url(#f7470pm5cfkus)" height="23.9688" id="ComponentType" style="stroke:#383838;stroke-width:1.5;" width="107" x="350" y="595"/><text fill="#000000" font-family="sans-serif" font-size="12" lengthAdjust="spacing" textLength="101" x="353" y="611.1387">ComponentType</text><!--MD5=[5e67de1afa87a34c5cf044797ba6a12f]
class MethodType--><rect codeLine="15" fill="#F8F8F8" filter="url(#f7470pm5cfkus)" height="23.9688" id="MethodType" style="stroke:#383838;stroke-width:1.5;" width="82" x="469.5" y="763"/><text fill="#000000" font-family="sans-serif" font-size="12" lengthAdjust="spacing" textLength="76" x="472.5" y="779.1387">MethodType</text><!--MD5=[e6c809820d88acc3564faeb20394ab9d]
class MainWindow--><rect codeLine="16" fill="#F8F8F8" filter="url(#f7470pm5cfkus)" height="23.9688" id="MainWindow" style="stroke:#383838;stroke-width:1.5;" width="82" x="275.5" y="175"/><text fill="#000000" font-family="sans-serif" font-size="12" lengthAdjust="spacing" textLength="76" x="278.5" y="191.1387">MainWindow</text><!--MD5=[16d025dde850bca9df54fb6533f05466]
class QMainWindow--><rect fill="#F8F8F8" filter="url(#f7470pm5cfkus)" height="23.9688" id="QMainWindow" style="stroke:#383838;stroke-width:1.5;" width="91" x="139" y="91"/><text fill="#000000" font-family="sans-serif" font-size="12" lengthAdjust="spacing" textLength="85" x="142" y="107.1387">QMainWindow</text><!--MD5=[f58047955ca932e7663149215b1c52bc]
class ComponentWidget--><rect codeLine="17" fill="#F8F8F8" filter="url(#f7470pm5cfkus)" height="23.9688" id="ComponentWidget" style="stroke:#383838;stroke-width:1.5;" width="121" x="663" y="427"/><text fill="#000000" font-family="sans-serif" font-size="12" lengthAdjust="spacing" textLength="115" x="666" y="443.1387">ComponentWidget</text><!--MD5=[3e3f16721f1fb369e45a968cb01568b2]
class QWidget--><rect fill="#F8F8F8" filter="url(#f7470pm5cfkus)" height="23.9688" id="QWidget" style="stroke:#383838;stroke-width:1.5;" width="58" x="660.5" y="175"/><text fill="#000000" font-family="sans-serif" font-size="12" lengthAdjust="spacing" textLength="52" x="663.5" y="191.1387">QWidget</text><!--MD5=[b4861235fb43946fca968df7550cce16]
class EnumeratorWidget--><rect codeLine="18" fill="#F8F8F8" filter="url(#f7470pm5cfkus)" height="23.9688" id="EnumeratorWidget" style="stroke:#383838;stroke-width:1.5;" width="123" x="151" y="511"/><text fill="#000000" font-family="sans-serif" font-size="12" lengthAdjust="spacing" textLength="117" x="154" y="527.1387">EnumeratorWidget</text><!--MD5=[19895920c69ec76813175a1b7946b91d]
class ProcedureWidget--><rect codeLine="19" fill="#F8F8F8" filter="url(#f7470pm5cfkus)" height="23.9688" id="ProcedureWidget" style="stroke:#383838;stroke-width:1.5;" width="114" x="360.5" y="511"/><text fill="#000000" font-family="sans-serif" font-size="12" lengthAdjust="spacing" textLength="108" x="363.5" y="527.1387">ProcedureWidget</text><!--MD5=[c055dc62cfc6e068c11faf7cfd55b804]
class StructWidget--><rect codeLine="20" fill="#F8F8F8" filter="url(#f7470pm5cfkus)" height="23.9688" id="StructWidget" style="stroke:#383838;stroke-width:1.5;" width="87" x="512" y="259"/><text fill="#000000" font-family="sans-serif" font-size="12" lengthAdjust="spacing" textLength="81" x="515" y="275.1387">StructWidget</text><!--MD5=[fa9a82ae8c1b63f1f84381e680a24038]
class CreateComponentDialogMode--><rect codeLine="21" fill="#F8F8F8" filter="url(#f7470pm5cfkus)" height="23.9688" id="CreateComponentDialogMode" style="stroke:#383838;stroke-width:1.5;" width="193" x="386" y="7"/><text fill="#000000" font-family="sans-serif" font-size="12" lengthAdjust="spacing" textLength="187" x="389" y="23.1387">CreateComponentDialogMode</text><!--MD5=[7b1947a7f64ca8bf6dcdc0e017552af5]
class CreateComponentDialog--><rect codeLine="22" fill="#F8F8F8" filter="url(#f7470pm5cfkus)" height="23.9688" id="CreateComponentDialog" style="stroke:#383838;stroke-width:1.5;" width="159" x="403" y="91"/><text fill="#000000" font-family="sans-serif" font-size="12" lengthAdjust="spacing" textLength="153" x="406" y="107.1387">CreateComponentDialog</text><!--MD5=[a8b6f7b9cc2471bf66c01f6545239df2]
class QDialog--><rect fill="#F8F8F8" filter="url(#f7470pm5cfkus)" height="23.9688" id="QDialog" style="stroke:#383838;stroke-width:1.5;" width="54" x="289.5" y="7"/><text fill="#000000" font-family="sans-serif" font-size="12" lengthAdjust="spacing" textLength="48" x="292.5" y="23.1387">QDialog</text><!--MD5=[6a1abfe6dd0d473320e85a990c0164e5]
class CustomMethodWidget--><rect codeLine="23" fill="#F8F8F8" filter="url(#f7470pm5cfkus)" height="23.9688" id="CustomMethodWidget" style="stroke:#383838;stroke-width:1.5;" width="143" x="485" y="427"/><text fill="#000000" font-family="sans-serif" font-size="12" lengthAdjust="spacing" textLength="137" x="488" y="443.1387">CustomMethodWidget</text><!--MD5=[71f6580fdafe28d9aae059c51bb2b49d]
class MemberWidget--><rect codeLine="24" fill="#F8F8F8" filter="url(#f7470pm5cfkus)" height="23.9688" id="MemberWidget" style="stroke:#383838;stroke-width:1.5;" width="99" x="677" y="343"/><text fill="#000000" font-family="sans-serif" font-size="12" lengthAdjust="spacing" textLength="93" x="680" y="359.1387">MemberWidget</text><!--MD5=[18aad03fe2332498c99797cb204150dc]
class PopUpTextEdit--><rect codeLine="25" fill="#F8F8F8" filter="url(#f7470pm5cfkus)" height="23.9688" id="PopUpTextEdit" style="stroke:#383838;stroke-width:1.5;" width="97" x="462" y="679"/><text fill="#000000" font-family="sans-serif" font-size="12" lengthAdjust="spacing" textLength="91" x="465" y="695.1387">PopUpTextEdit</text><!--MD5=[7583fb819684849796d116cdb629f5b2]
class QTextBrowser--><rect fill="#F8F8F8" filter="url(#f7470pm5cfkus)" height="23.9688" id="QTextBrowser" style="stroke:#383838;stroke-width:1.5;" width="91" x="224" y="595"/><text fill="#000000" font-family="sans-serif" font-size="12" lengthAdjust="spacing" textLength="85" x="227" y="611.1387">QTextBrowser</text><!--MD5=[e8c7ddfe88f5b7de1e94ae70608261c6]
class SettingsDialog--><rect codeLine="26" fill="#F8F8F8" filter="url(#f7470pm5cfkus)" height="23.9688" id="SettingsDialog" style="stroke:#383838;stroke-width:1.5;" width="97" x="7" y="91"/><text fill="#000000" font-family="sans-serif" font-size="12" lengthAdjust="spacing" textLength="91" x="10" y="107.1387">SettingsDialog</text><!--MD5=[17cc9e66f029763309f308f68e07198f]
class TextInputDialog--><rect codeLine="27" fill="#F8F8F8" filter="url(#f7470pm5cfkus)" height="23.9688" id="TextInputDialog" style="stroke:#383838;stroke-width:1.5;" width="103" x="265" y="91"/><text fill="#000000" font-family="sans-serif" font-size="12" lengthAdjust="spacing" textLength="97" x="268" y="107.1387">TextInputDialog</text><!--MD5=[6d49110face5b86f7a663104a5736814]
reverse link QMainWindow to MainWindow--><path d="M203.33,135.15 C203.33,135.15 203.33,183 203.33,183 C203.33,183 242.97,183 275.32,183 " fill="none" id="QMainWindow-backto-MainWindow" style="stroke:#383838;stroke-width:1.0;"/><polygon fill="none" points="196.33,135.15,203.33,115.15,210.33,135.15,196.33,135.15" style="stroke:#383838;stroke-width:1.0;"/><!--MD5=[2d7b86d4e08437b6f8b6989d7de24a74]
reverse link QWidget to ComponentWidget--><path d="M673.5,219.15 C673.5,219.15 673.5,426.97 673.5,426.97 " fill="none" id="QWidget-backto-ComponentWidget" style="stroke:#383838;stroke-width:1.0;"/><polygon fill="none" points="666.5,219.15,673.5,199.15,680.5,219.15,666.5,219.15" style="stroke:#383838;stroke-width:1.0;"/><!--MD5=[34ebeea314c456451037da4aafe084b9]
reverse link ComponentWidget to EnumeratorWidget--><path d="M687.2,471.37 C687.2,471.37 687.2,481 687.2,481 C687.2,481 259.17,481 259.17,481 C259.17,481 259.17,498.24 259.17,510.63 " fill="none" id="ComponentWidget-backto-EnumeratorWidget" style="stroke:#383838;stroke-width:1.0;"/><polygon fill="none" points="680.2,471.37,687.2,451.37,694.2,471.37,680.2,471.37" style="stroke:#383838;stroke-width:1.0;"/><!--MD5=[379fac347f92e70643ca31d24c827d86]
reverse link ComponentWidget to ProcedureWidget--><path d="M711.4,471.04 C711.4,471.04 711.4,523 711.4,523 C711.4,523 559.98,523 474.52,523 " fill="none" id="ComponentWidget-backto-ProcedureWidget" style="stroke:#383838;stroke-width:1.0;"/><polygon fill="none" points="704.4,471.04,711.4,451.04,718.4,471.04,704.4,471.04" style="stroke:#383838;stroke-width:1.0;"/><!--MD5=[6b233fea2abc10f2b80f710d665c53c5]
reverse link QWidget to StructWidget--><path d="M670,219.15 C670,219.15 670,267 670,267 C670,267 631.47,267 599.11,267 " fill="none" id="QWidget-backto-StructWidget" style="stroke:#383838;stroke-width:1.0;"/><polygon fill="none" points="663,219.15,670,199.15,677,219.15,663,219.15" style="stroke:#383838;stroke-width:1.0;"/><!--MD5=[60b447b95c2f3875892fe7c6671524bc]
reverse link QDialog to CreateComponentDialog--><path d="M363.56,19 C363.56,19 377,19 377,19 C377,19 377,103 377,103 C377,103 387.96,103 402.81,103 " fill="none" id="QDialog-backto-CreateComponentDialog" style="stroke:#383838;stroke-width:1.0;"/><polygon fill="none" points="363.56,26,343.56,19,363.56,12,363.56,26" style="stroke:#383838;stroke-width:1.0;"/><!--MD5=[85d9c446e8d801270e176e8e7c56a77a]
reverse link QWidget to CustomMethodWidget--><path d="M640.33,181 C640.33,181 613.5,181 613.5,181 C613.5,181 613.5,375.89 613.5,426.9 " fill="none" id="QWidget-backto-CustomMethodWidget" style="stroke:#383838;stroke-width:1.0;"/><polygon fill="none" points="640.33,174,660.33,181,640.33,188,640.33,174" style="stroke:#383838;stroke-width:1.0;"/><!--MD5=[17d386f4a327e27d9e0f3cc8a28f2a38]
reverse link QWidget to MemberWidget--><path d="M704.67,219.08 C704.67,219.08 704.67,342.57 704.67,342.57 " fill="none" id="QWidget-backto-MemberWidget" style="stroke:#383838;stroke-width:1.0;"/><polygon fill="none" points="697.67,219.08,704.67,199.08,711.67,219.08,697.67,219.08" style="stroke:#383838;stroke-width:1.0;"/><!--MD5=[6c17df220d7be6dd642bc610d416876d]
reverse link QTextBrowser to PopUpTextEdit--><path d="M269.5,639.15 C269.5,639.15 269.5,687 269.5,687 C269.5,687 391.31,687 461.73,687 " fill="none" id="QTextBrowser-backto-PopUpTextEdit" style="stroke:#383838;stroke-width:1.0;"/><polygon fill="none" points="262.5,639.15,269.5,619.15,276.5,639.15,262.5,639.15" style="stroke:#383838;stroke-width:1.0;"/><!--MD5=[603a310196e6d1108837be865414ace1]
reverse link QDialog to SettingsDialog--><path d="M269.06,19 C269.06,19 55.5,19 55.5,19 C55.5,19 55.5,67.74 55.5,90.96 " fill="none" id="QDialog-backto-SettingsDialog" style="stroke:#383838;stroke-width:1.0;"/><polygon fill="none" points="269.06,12,289.06,19,269.06,26,269.06,12" style="stroke:#383838;stroke-width:1.0;"/><!--MD5=[50f159fcf968291c655e880f21ede70d]
reverse link QDialog to TextInputDialog--><path d="M316.5,51.04 C316.5,51.04 316.5,90.99 316.5,90.99 " fill="none" id="QDialog-backto-TextInputDialog" style="stroke:#383838;stroke-width:1.0;"/><polygon fill="none" points="309.5,51.04,316.5,31.04,323.5,51.04,309.5,51.04" style="stroke:#383838;stroke-width:1.0;"/><!--MD5=[b8ee51d777f823bcef2e7bb294934903]
link MainWindow to Model--><path codeLine="29" d="M351.88,199.06 C351.88,236.93 351.88,351 351.88,351 C351.88,351 416.79,351 416.79,351 " fill="none" id="MainWindow-to-Model" style="stroke:#383838;stroke-width:1.0;stroke-dasharray:7.0,7.0;"/><polygon fill="#383838" points="421.79,351,412.79,347,416.79,351,412.79,355,421.79,351" style="stroke:#383838;stroke-width:1.0;"/><!--MD5=[83350e7c95cd9639efe2ee5fca5da3c5]
reverse link CreateComponentDialog to MainWindow--><path codeLine="30" d="M412.5,120.04 C412.5,120.04 412.5,187 412.5,187 C412.5,187 383.79,187 357.77,187 " fill="none" id="CreateComponentDialog-backto-MainWindow" style="stroke:#383838;stroke-width:1.0;stroke-dasharray:7.0,7.0;"/><polygon fill="#383838" points="412.5,115.04,408.5,124.04,412.5,120.04,416.5,124.04,412.5,115.04" style="stroke:#383838;stroke-width:1.0;"/><!--MD5=[13a0dcdb6a8ec141d783addfaaaaba3d]
reverse link SettingsDialog to MainWindow--><path codeLine="31" d="M55.5,120.24 C55.5,120.24 55.5,191 55.5,191 C55.5,191 201.93,191 275.43,191 " fill="none" id="SettingsDialog-backto-MainWindow" style="stroke:#383838;stroke-width:1.0;stroke-dasharray:7.0,7.0;"/><polygon fill="#383838" points="55.5,115.24,51.5,124.24,55.5,120.24,59.5,124.24,55.5,115.24" style="stroke:#383838;stroke-width:1.0;"/><!--MD5=[33132b3214e16b3242fa8a8651f22fb4]
reverse link TextInputDialog to MainWindow--><path codeLine="32" d="M316.5,120.04 C316.5,120.04 316.5,174.99 316.5,174.99 " fill="none" id="TextInputDialog-backto-MainWindow" style="stroke:#383838;stroke-width:1.0;stroke-dasharray:7.0,7.0;"/><polygon fill="#383838" points="316.5,115.04,312.5,124.04,316.5,120.04,320.5,124.04,316.5,115.04" style="stroke:#383838;stroke-width:1.0;"/><!--MD5=[29a9eb650b1655526f67941fa544b5b8]
link MainWindow to EnumeratorWidget--><path codeLine="33" d="M311.25,199.21 C311.25,259.11 311.25,519 311.25,519 C311.25,519 279.2,519 279.2,519 " fill="none" id="MainWindow-to-EnumeratorWidget" style="stroke:#383838;stroke-width:1.0;stroke-dasharray:7.0,7.0;"/><polygon fill="#383838" points="274.2,519,283.2,523,279.2,519,283.2,515,274.2,519" style="stroke:#383838;stroke-width:1.0;"/><!--MD5=[72f8f74b4f3652bb6dae19cc4b847ac5]
link MainWindow to ProcedureWidget--><path codeLine="34" d="M357.84,193 C362.44,193 365.5,193 365.5,193 C365.5,193 365.5,505.86 365.5,505.86 " fill="none" id="MainWindow-to-ProcedureWidget" style="stroke:#383838;stroke-width:1.0;stroke-dasharray:7.0,7.0;"/><polygon fill="#383838" points="365.5,510.86,369.5,501.86,365.5,505.86,361.5,501.86,365.5,510.86" style="stroke:#383838;stroke-width:1.0;"/><!--MD5=[51a5501a982bdf843961b4421ddf3146]
link MainWindow to StructWidget--><path codeLine="35" d="M353.75,199.15 C353.75,221.53 353.75,267 353.75,267 C353.75,267 506.72,267 506.72,267 " fill="none" id="MainWindow-to-StructWidget" style="stroke:#383838;stroke-width:1.0;stroke-dasharray:7.0,7.0;"/><polygon fill="#383838" points="511.72,267,502.72,263,506.72,267,502.72,271,511.72,267" style="stroke:#383838;stroke-width:1.0;"/><!--MD5=[5136b91c23001576eaf0286f8fc8d2b8]
reverse link MemberWidget to ComponentWidget--><path codeLine="37" d="M726.5,372.04 C726.5,372.04 726.5,426.99 726.5,426.99 " fill="none" id="MemberWidget-backto-ComponentWidget" style="stroke:#383838;stroke-width:1.0;stroke-dasharray:7.0,7.0;"/><polygon fill="#383838" points="726.5,367.04,722.5,376.04,726.5,372.04,730.5,376.04,726.5,367.04" style="stroke:#383838;stroke-width:1.0;"/><!--MD5=[3ed8f6dc00b0eca26338314ff191b4e3]
reverse link CustomMethodWidget to ComponentWidget--><path codeLine="38" d="M633.29,439 C633.29,439 662.78,439 662.78,439 " fill="none" id="CustomMethodWidget-backto-ComponentWidget" style="stroke:#383838;stroke-width:1.0;stroke-dasharray:7.0,7.0;"/><polygon fill="#383838" points="628.29,439,637.29,443,633.29,439,637.29,435,628.29,439" style="stroke:#383838;stroke-width:1.0;"/><!--MD5=[2bc4fa8d0ed6dd83215bbd6b73d09383]
reverse link Model to ComponentWidget--><path codeLine="39" d="M470.29,355 C470.29,355 666.5,355 666.5,355 C666.5,355 666.5,403.74 666.5,426.96 " fill="none" id="Model-backto-ComponentWidget" style="stroke:#383838;stroke-width:1.0;stroke-dasharray:7.0,7.0;"/><polygon fill="#383838" points="465.29,355,474.29,359,470.29,355,474.29,351,465.29,355" style="stroke:#383838;stroke-width:1.0;"/><!--MD5=[8e765c8472f12027ea28a83da8ac6a99]
reverse link ComponentType to ComponentWidget--><path codeLine="40" d="M462.23,607 C462.23,607 735.6,607 735.6,607 C735.6,607 735.6,489.6 735.6,451.08 " fill="none" id="ComponentType-backto-ComponentWidget" style="stroke:#383838;stroke-width:1.0;stroke-dasharray:7.0,7.0;"/><polygon fill="#383838" points="457.23,607,466.23,611,462.23,607,466.23,603,457.23,607" style="stroke:#383838;stroke-width:1.0;"/><!--MD5=[610233e3f84856aa9c4898fef5186d85]
link ComponentWidget to PopUpTextEdit--><path codeLine="41" d="M759.8,451.15 C759.8,501.49 759.8,691 759.8,691 C759.8,691 564.16,691 564.16,691 " fill="none" id="ComponentWidget-to-PopUpTextEdit" style="stroke:#383838;stroke-width:1.0;stroke-dasharray:7.0,7.0;"/><polygon fill="#383838" points="559.16,691,568.16,695,564.16,691,568.16,687,559.16,691" style="stroke:#383838;stroke-width:1.0;"/><!--MD5=[ddfebd2233d3953511f9772bda0eb57f]
link EnumeratorWidget to PopUpTextEdit--><path codeLine="43" d="M187.5,535.09 C187.5,574.25 187.5,695 187.5,695 C187.5,695 456.79,695 456.79,695 " fill="none" id="EnumeratorWidget-to-PopUpTextEdit" style="stroke:#383838;stroke-width:1.0;stroke-dasharray:7.0,7.0;"/><polygon fill="#383838" points="461.79,695,452.79,691,456.79,695,452.79,699,461.79,695" style="stroke:#383838;stroke-width:1.0;"/><!--MD5=[984f664af98fe3d86bae745499fb90ae]
link EnumeratorWidget to Model--><path codeLine="44" d="M177.17,510.94 C177.17,473.07 177.17,359 177.17,359 C177.17,359 416.7,359 416.7,359 " fill="none" id="EnumeratorWidget-to-Model" style="stroke:#383838;stroke-width:1.0;stroke-dasharray:7.0,7.0;"/><polygon fill="#383838" points="421.7,359,412.7,355,416.7,359,412.7,363,421.7,359" style="stroke:#383838;stroke-width:1.0;"/><!--MD5=[1c2cc3423d6a0e0fec5a9bf2b08e7233]
link EnumeratorWidget to ComponentType--><path codeLine="45" d="M274.03,527 C312.82,527 355.62,527 355.62,527 C355.62,527 355.62,589.85 355.62,589.85 " fill="none" id="EnumeratorWidget-to-ComponentType" style="stroke:#383838;stroke-width:1.0;stroke-dasharray:7.0,7.0;"/><polygon fill="#383838" points="355.62,594.85,359.62,585.85,355.62,589.85,351.62,585.85,355.62,594.85" style="stroke:#383838;stroke-width:1.0;"/><!--MD5=[44c7468bbfa4f5f02df02bbb52b1aa13]
reverse link Component to EnumeratorWidget--><path codeLine="46" d="M244.33,456.04 C244.33,456.04 244.33,510.99 244.33,510.99 " fill="none" id="Component-backto-EnumeratorWidget" style="stroke:#383838;stroke-width:1.0;stroke-dasharray:7.0,7.0;"/><polygon fill="#383838" points="244.33,451.04,240.33,460.04,244.33,456.04,248.33,460.04,244.33,451.04" style="stroke:#383838;stroke-width:1.0;"/><!--MD5=[89f9da81a9c505e8c95caebace3e6721]
link ProcedureWidget to PopUpTextEdit--><path codeLine="48" d="M468.25,535.08 C468.25,535.08 468.25,673.57 468.25,673.57 " fill="none" id="ProcedureWidget-to-PopUpTextEdit" style="stroke:#383838;stroke-width:1.0;stroke-dasharray:7.0,7.0;"/><polygon fill="#383838" points="468.25,678.57,472.25,669.57,468.25,673.57,464.25,669.57,468.25,678.57" style="stroke:#383838;stroke-width:1.0;"/><!--MD5=[51209f3c7051961e0f298700bf7d5424]
link ProcedureWidget to Model--><path codeLine="49" d="M443.5,510.92 C443.5,510.92 443.5,372.43 443.5,372.43 " fill="none" id="ProcedureWidget-to-Model" style="stroke:#383838;stroke-width:1.0;stroke-dasharray:7.0,7.0;"/><polygon fill="#383838" points="443.5,367.43,439.5,376.43,443.5,372.43,447.5,376.43,443.5,367.43" style="stroke:#383838;stroke-width:1.0;"/><!--MD5=[9bd724a02a928c84e54ee6985787149b]
link ProcedureWidget to ComponentType--><path codeLine="50" d="M408.75,535.04 C408.75,535.04 408.75,589.99 408.75,589.99 " fill="none" id="ProcedureWidget-to-ComponentType" style="stroke:#383838;stroke-width:1.0;stroke-dasharray:7.0,7.0;"/><polygon fill="#383838" points="408.75,594.99,412.75,585.99,408.75,589.99,404.75,585.99,408.75,594.99" style="stroke:#383838;stroke-width:1.0;"/><!--MD5=[39b70af06529a96b2a5f22019233c011]
reverse link Component to ProcedureWidget--><path codeLine="51" d="M312.76,439 C312.76,439 363,439 363,439 C363,439 363,487.74 363,510.96 " fill="none" id="Component-backto-ProcedureWidget" style="stroke:#383838;stroke-width:1.0;stroke-dasharray:7.0,7.0;"/><polygon fill="#383838" points="307.76,439,316.76,443,312.76,439,316.76,435,307.76,439" style="stroke:#383838;stroke-width:1.0;"/><!--MD5=[0eaae73735081f5f420c8d87fb4d5c94]
link StructWidget to MemberWidget--><path codeLine="53" d="M599.07,275 C638.63,275 690.83,275 690.83,275 C690.83,275 690.83,337.85 690.83,337.85 " fill="none" id="StructWidget-to-MemberWidget" style="stroke:#383838;stroke-width:1.0;stroke-dasharray:7.0,7.0;"/><polygon fill="#383838" points="690.83,342.85,694.83,333.85,690.83,337.85,686.83,333.85,690.83,342.85" style="stroke:#383838;stroke-width:1.0;"/><!--MD5=[e7e2708f677d82d6bc5ca249de511546]
link StructWidget to CustomMethodWidget--><path codeLine="54" d="M555.5,283.08 C555.5,283.08 555.5,421.57 555.5,421.57 " fill="none" id="StructWidget-to-CustomMethodWidget" style="stroke:#383838;stroke-width:1.0;stroke-dasharray:7.0,7.0;"/><polygon fill="#383838" points="555.5,426.57,559.5,417.57,555.5,421.57,551.5,417.57,555.5,426.57" style="stroke:#383838;stroke-width:1.0;"/><!--MD5=[6e053acd2cadf4c9afebd14607074a59]
link StructWidget to Model--><path codeLine="55" d="M511.95,275 C483.15,275 450.67,275 450.67,275 C450.67,275 450.67,337.85 450.67,337.85 " fill="none" id="StructWidget-to-Model" style="stroke:#383838;stroke-width:1.0;stroke-dasharray:7.0,7.0;"/><polygon fill="#383838" points="450.67,342.85,454.67,333.85,450.67,337.85,446.67,333.85,450.67,342.85" style="stroke:#383838;stroke-width:1.0;"/><!--MD5=[510e1150fd7b6952c14242844b40fa29]
link CustomMethodWidget to PopUpTextEdit--><path codeLine="57" d="M522,451.15 C522,451.15 522,673.97 522,673.97 " fill="none" id="CustomMethodWidget-to-PopUpTextEdit" style="stroke:#383838;stroke-width:1.0;stroke-dasharray:7.0,7.0;"/><polygon fill="#383838" points="522,678.97,526,669.97,522,673.97,518,669.97,522,678.97" style="stroke:#383838;stroke-width:1.0;"/><!--MD5=[d7919d4de2b80de491e2be07900c8e44]
link PopUpTextEdit to MethodType--><path codeLine="59" d="M510.5,703.04 C510.5,703.04 510.5,757.99 510.5,757.99 " fill="none" id="PopUpTextEdit-to-MethodType" style="stroke:#383838;stroke-width:1.0;stroke-dasharray:7.0,7.0;"/><polygon fill="#383838" points="510.5,762.99,514.5,753.99,510.5,757.99,506.5,753.99,510.5,762.99" style="stroke:#383838;stroke-width:1.0;"/><!--MD5=[2f8e46b73aa64b5bb6272c6a3e0262bb]
reverse link CreateComponentDialogMode to CreateComponentDialog--><path codeLine="61" d="M482.5,36.04 C482.5,36.04 482.5,90.99 482.5,90.99 " fill="none" id="CreateComponentDialogMode-backto-CreateComponentDialog" style="stroke:#383838;stroke-width:1.0;stroke-dasharray:7.0,7.0;"/><polygon fill="#383838" points="482.5,31.04,478.5,40.04,482.5,36.04,486.5,40.04,482.5,31.04" style="stroke:#383838;stroke-width:1.0;"/><!--MD5=[ea4d495c351d0e2156f8372de4749e90]
link CreateComponentDialog to Model--><path codeLine="62" d="M436.33,115.15 C436.33,115.15 436.33,337.97 436.33,337.97 " fill="none" id="CreateComponentDialog-to-Model" style="stroke:#383838;stroke-width:1.0;stroke-dasharray:7.0,7.0;"/><polygon fill="#383838" points="436.33,342.97,440.33,333.97,436.33,337.97,432.33,333.97,436.33,342.97" style="stroke:#383838;stroke-width:1.0;"/><!--MD5=[dd587755596ee3409512c4ebc27d154b]
@startuml View-relations

skinparam Monochrome true
skinparam ClassAttributeIconSize 0
'skinparam groupInheritance 2
skinparam linetype ortho
hide circle
hide enum methods
hide enum members
hide class methods
hide class members

class Model
class Component
enum ComponentType
enum MethodType
class MainWindow extends QMainWindow
class ComponentWidget extends QWidget
class EnumeratorWidget extends ComponentWidget
class ProcedureWidget extends ComponentWidget
class StructWidget extends QWidget
enum CreateComponentDialogMode
class CreateComponentDialog extends QDialog
class CustomMethodWidget extends QWidget
class MemberWidget extends QWidget
class PopUpTextEdit extends QTextBrowser
class SettingsDialog extends QDialog
class TextInputDialog extends QDialog

MainWindow .down.> Model
MainWindow .up.> CreateComponentDialog
MainWindow .up.> SettingsDialog
MainWindow .up.> TextInputDialog
MainWindow .down.> EnumeratorWidget
MainWindow .down.> ProcedureWidget
MainWindow .down.> StructWidget

ComponentWidget .up.> MemberWidget
ComponentWidget .left.> CustomMethodWidget
ComponentWidget .up.> Model
ComponentWidget .up.> ComponentType
ComponentWidget .down.> PopUpTextEdit

EnumeratorWidget ..> PopUpTextEdit
EnumeratorWidget ..> Model
EnumeratorWidget ..> ComponentType
EnumeratorWidget .up.> Component

ProcedureWidget ...> PopUpTextEdit
ProcedureWidget ..> Model
ProcedureWidget ..> ComponentType
ProcedureWidget .up.> Component

StructWidget ..> MemberWidget
StructWidget ..> CustomMethodWidget
StructWidget ..> Model

CustomMethodWidget ..> PopUpTextEdit

PopUpTextEdit ..> MethodType

CreateComponentDialog .up.> CreateComponentDialogMode
CreateComponentDialog ..> Model

@enduml

@startuml View-relations

skinparam Monochrome true
skinparam ClassAttributeIconSize 0
skinparam linetype ortho
hide circle
hide enum methods
hide enum members
hide class methods
hide class members

class Model
class Component
enum ComponentType
enum MethodType
class MainWindow extends QMainWindow
class ComponentWidget extends QWidget
class EnumeratorWidget extends ComponentWidget
class ProcedureWidget extends ComponentWidget
class StructWidget extends QWidget
enum CreateComponentDialogMode
class CreateComponentDialog extends QDialog
class CustomMethodWidget extends QWidget
class MemberWidget extends QWidget
class PopUpTextEdit extends QTextBrowser
class SettingsDialog extends QDialog
class TextInputDialog extends QDialog

MainWindow .down.> Model
MainWindow .up.> CreateComponentDialog
MainWindow .up.> SettingsDialog
MainWindow .up.> TextInputDialog
MainWindow .down.> EnumeratorWidget
MainWindow .down.> ProcedureWidget
MainWindow .down.> StructWidget

ComponentWidget .up.> MemberWidget
ComponentWidget .left.> CustomMethodWidget
ComponentWidget .up.> Model
ComponentWidget .up.> ComponentType
ComponentWidget .down.> PopUpTextEdit

EnumeratorWidget ..> PopUpTextEdit
EnumeratorWidget ..> Model
EnumeratorWidget ..> ComponentType
EnumeratorWidget .up.> Component

ProcedureWidget ...> PopUpTextEdit
ProcedureWidget ..> Model
ProcedureWidget ..> ComponentType
ProcedureWidget .up.> Component

StructWidget ..> MemberWidget
StructWidget ..> CustomMethodWidget
StructWidget ..> Model

CustomMethodWidget ..> PopUpTextEdit

PopUpTextEdit ..> MethodType

CreateComponentDialog .up.> CreateComponentDialogMode
CreateComponentDialog ..> Model

@enduml

PlantUML version 1.2022.0(Tue Jan 11 17:16:42 CET 2022)
(GPL source distribution)
Java Runtime: OpenJDK Runtime Environment
JVM: OpenJDK 64-Bit Server VM
Default Encoding: UTF-8
Language: en
Country: US
--></g></svg>